<?xml version="1.0" encoding="utf-8"?>
<!-- Generator: Adobe Illustrator 19.2.1, SVG Export Plug-In . SVG Version: 6.00 Build 0)  -->
<svg version="1.1"
	 id="svg2" xmlns:cc="http://creativecommons.org/ns#" xmlns:dc="http://purl.org/dc/elements/1.1/" xmlns:rdf="http://www.w3.org/1999/02/22-rdf-syntax-ns#" xmlns:svg="http://www.w3.org/2000/svg"
	 xmlns="http://www.w3.org/2000/svg" xmlns:xlink="http://www.w3.org/1999/xlink" x="0px" y="0px" viewBox="0 0 421.6 64.9"
	 style="enable-background:new 0 0 421.6 64.9;" xml:space="preserve">
<style type="text/css">
	.st0{fill:#FFFFFF;}
</style>
<g id="g10" transform="matrix(1.3333333,0,0,-1.3333333,0,64.946667)">
	<g id="g12" transform="scale(0.1)">
		<path id="path14" class="st0" d="M641.6,259.4H712L693,187c-23.1-7.3-55.8-12.1-83.4-12.1c-53,0-78.1,15.8-78.1,49.4
			c0,7.3,2,20.2,4.8,32.4c6.9,29.5,13.4,46.5,23.1,60.3c14.6,20.6,43.7,30,92.7,30c30,0,57.5-3.2,80.1-9.7l-12.9-49.8
			c-19,3.6-32.4,5.3-48.2,5.3c-45.7,0-67.2-18.2-67.2-56.3c0-12.9,6.1-19.8,18.6-19.8c2.8,0,4.5,0.4,8.5,1.2L641.6,259.4z
			 M752.5,340.8h160.3l-13-50.6h-93.9L801,272h94l-8.5-32.4H793l-4.5-17H882l-10.9-42.1H710.8L752.5,340.8"/>
		<path id="path16" class="st0" d="M930.2,340.7h73.6l19.8-91.1l22.7,91.1h68L1073,180.4h-74.9l-21,83.4l-20.2-83.4h-68.4
			L930.2,340.7z M1132.1,340.7h160.3l-12.9-50.6H1186l-4.8-18.2h93.5l-8.1-32.4h-93.9l-4-17h93.5l-10.9-42.1H1091L1132.1,340.7"/>
		<path id="path18" class="st0" d="M1361.2,263.8l8.1,30.8h17.4c19.8,0,23.1-1.6,23.1-10.9c0-6.9-3.6-14.2-8.1-17
			c-3.6-2.4-8.9-2.8-24.3-2.8L1361.2,263.8z M1268.5,180.4h71.3l12.5,48.6l31.2-48.6h150.9l13.7,21.9h58.6v-21.9h67.6l-0.4,160.3
			H1557l-95-157.8l-39.3,59.9c22.7,0,31.6,2.8,40.9,12.9c10.1,10.9,16.6,30.4,16.6,50.2c0,24.7-11.3,35.2-38,35.2l-32.8-0.4h-99.2
			L1268.5,180.4z M1681.1,180.4h134.8l14.6,55.4h-67.2l27.5,104.8h-68L1681.1,180.4z M1571.9,242.7l34,56.3l1.2-56.3H1571.9z"/>
		<path id="path20" class="st0" d="M1997.5,243.1L2032,299v-55.8L1997.5,243.1L1997.5,243.1z M1886.7,180.8h73.3l13.4,21.4h58.7
			v-21.4h66v159.9h-117.4L1886.7,180.8z M2106.4,287.2h42.1L2121,180.8h69.6l27.5,106.4h40.5l14.2,53.4h-152.2L2106.4,287.2"/>
		<path id="path22" class="st0" d="M2326.2,238.8c0,28.3,16.2,51,36.8,51c14.2,0,21-4.9,21-14.6c0-30-15.8-52.2-36.8-52.2
			C2333.5,223,2326.2,228.7,2326.2,238.8 M2256.2,226.6c0-38,22.3-51.4,85.4-51.4c57.9,0,85,13.8,100,50.2
			c8.5,21.1,15.4,52.2,15.4,71.2c0,37.2-21.4,49.4-87,49.4c-52.2,0-76.9-10.5-93.1-40.1C2265.5,284.9,2256.2,249.7,2256.2,226.6
			 M2441.1,180.5h66.8l23.9,91.9l6.9-91.9h38l54.2,90.3l-23.9-90.3h66.8l41.7,160.3h-93.1l-46.5-86.6l-5.3,86.6h-87.8L2441.1,180.5z
			 M2691.6,180.5h68l41.7,160.3h-69.6L2691.6,180.5"/>
		<path id="path24" class="st0" d="M2859.6,174c-49.4,0-70,14.2-70,48.6c0,32.4,9.3,68,23.9,89c16.2,23.9,41.3,32.8,90.3,32.8
			c24.7,0,44.9-2,71.2-7.7l-13.8-55c-15.4,3.2-25.9,4.5-36.4,4.5c-38.9,0-60.3-15.4-60.3-42.5c0-13.4,7.3-18.2,27.9-18.2
			c13.4,0,35.6,3.3,57.1,8.5l-11.4-49C2916.2,178.1,2887.9,174,2859.6,174 M2964.8,223.4c23.1-3.2,37.6-4.5,55.5-4.5
			c28.7,0,41.3,3.2,41.3,10.5c0,3.2-2.4,4.8-7.7,4.8h-21c-30.4,0.4-36,1.2-45.7,6.9c-8.9,5.3-13.3,14.2-13.3,27.5
			c0,29.1,12.1,55.4,29.9,64.4c16.6,8.5,44.5,12.9,82.6,12.9c8.5,0,19.4-0.4,31.6-0.8c21-0.8,26.7-1.6,44.1-4.5l-12.5-49.8
			c-28.3,2.4-37.2,2.9-54.6,2.9c-30.8,0-43.3-3.2-43.3-10.9c0-4.5,3.2-6.5,10.1-6.5h12.1h21.9c8.9,0,16.2,0,21.4-0.8
			c14.6-2,23.9-14.2,23.9-30.7c0-31.2-13.8-54.3-37.3-62.3c-17.8-6.1-38.1-8.5-70-8.5c-9.3,0-18.6,0.4-27.5,0.8
			c-19.8,1.2-29.1,2.4-51.4,6.5L2964.8,223.4"/>
		<path id="path26" class="st0" d="M164.3,371.7l68.2-117l67.9,117L232.5,487L164.3,371.7"/>
		<path id="path28" class="st0" d="M232.5,487.1l-68.2-115.3l68.2-117l67.9,117L232.5,487.1"/>
		<path id="path30" class="st0" d="M164.3,133.2l68.2-115.3l67.9,115.3l-67.9,117L164.3,133.2"/>
		<path id="path32" class="st0" d="M0,251.6l115.3-68.2l117,68.2l-117,67.9L0,251.6"/>
		<path id="path34" class="st0" d="M232.7,251.6l117,67.9L465,251.6l-115.3-68.2L232.7,251.6"/>
	</g>
</g>
</svg>
